<svg width="105" height="105" viewBox="0 0 105 105" fill="none" xmlns="http://www.w3.org/2000/svg">
<path d="M73.5678 34.4725C70.505 34.4725 67.5084 34.9085 64.6192 35.767C64.7337 34.6625 64.7927 33.5417 64.7927 32.4074C64.7927 27.2171 63.6014 22.2577 61.2524 17.6674C60.7361 16.6592 59.5007 16.2603 58.4929 16.7761C57.4849 17.2923 57.0859 18.5275 57.6016 19.5357C59.652 23.5419 60.6916 27.8725 60.6916 32.4072C60.6916 48.0096 47.9982 60.7027 32.396 60.7027C28.7588 60.7027 25.2163 60.0216 21.8675 58.6778C21.1057 58.3728 20.2347 58.5506 19.6541 59.131L15.1729 63.6126V55.8473C15.1729 55.2345 14.8988 54.6537 14.4256 54.2641C7.86415 48.8625 4.10075 40.896 4.10075 32.4072C4.10075 16.8048 16.7941 4.1117 32.3963 4.1117C36.1621 4.1117 39.8183 4.83891 43.2634 6.27322C44.3749 6.73588 45.4686 7.27626 46.5139 7.8794C47.4945 8.44501 48.7484 8.10888 49.3144 7.12799C49.8802 6.14731 49.5439 4.89325 48.563 4.32744C47.3658 3.63694 46.1129 3.0176 44.8396 2.48748C40.8927 0.844181 36.7062 0.0107422 32.3965 0.0107422C14.5331 0.0107422 0 14.5438 0 32.4072C0 41.7992 4.02262 50.6323 11.0722 56.796V68.5625C11.0722 69.3919 11.572 70.1396 12.3379 70.4569C12.5916 70.5619 12.858 70.6129 13.1222 70.6129C13.6558 70.6129 14.1802 70.4046 14.5725 70.0125L21.6192 62.9658C25.0743 64.1858 28.6929 64.8035 32.3965 64.8035C35.8303 64.8035 39.1401 64.2645 42.248 63.2701C42.1748 64.1462 42.1358 65.0256 42.1358 65.9043C42.1358 70.7044 43.1902 75.3125 45.2694 79.6013C45.624 80.3318 46.3547 80.7575 47.1158 80.7575C47.416 80.7575 47.7207 80.6915 48.0089 80.5516C49.0277 80.0576 49.4532 78.831 48.9592 77.812C47.1525 74.0857 46.2364 70.0795 46.2364 65.9045C46.2364 64.438 46.356 62.9694 46.5887 61.5247C55.0418 57.3876 61.4397 49.6769 63.8005 40.3725C66.9134 39.1793 70.1937 38.5733 73.5676 38.5733C88.6382 38.5733 100.899 50.8341 100.899 65.9045C100.899 74.2764 97.1369 82.0735 90.5776 87.2971C90.0889 87.6859 89.8045 88.2763 89.8045 88.901V97.9913L84.188 92.3748C83.6409 91.8279 82.8331 91.6353 82.0987 91.8765C79.3508 92.7784 76.4806 93.236 73.5676 93.236C69.4004 93.236 65.4004 92.3229 61.6792 90.5222C60.6604 90.0291 59.4338 90.4553 58.9404 91.4747C58.4472 92.494 58.8737 93.7201 59.893 94.2136C64.1756 96.2857 68.7766 97.3365 73.5676 97.3365C76.4879 97.3365 79.3724 96.9362 82.1594 96.145L90.4052 104.391C90.7975 104.783 91.3219 104.991 91.8555 104.991C92.1196 104.991 92.3862 104.94 92.6397 104.835C93.4057 104.518 93.9055 103.77 93.9055 102.941V89.8692C100.969 83.876 105 75.1985 105 65.9043C105 48.5729 90.8996 34.4725 73.5678 34.4725Z" fill="white"/>
<path d="M54.5346 85.5168C54.4716 85.4561 54.4093 85.395 54.3471 85.3333C53.5432 84.5361 52.2447 84.5421 51.4475 85.3462C50.6504 86.1503 50.6564 87.4487 51.4605 88.2458C51.5329 88.3176 51.6055 88.3885 51.6785 88.4595C52.0769 88.8463 52.5919 89.0384 53.1064 89.0384C53.6415 89.0384 54.1761 88.8301 54.5781 88.4162C55.3666 87.6035 55.3471 86.3054 54.5346 85.5168Z" fill="white"/>
<path d="M56.17 10.3983C55.2798 9.44815 53.9871 9.58842 53.2517 10.2734C52.5165 10.9577 52.2844 12.2372 53.1685 13.1931C53.1746 13.1996 53.181 13.2064 53.1871 13.213C53.6297 13.6787 54.168 13.8782 54.6881 13.8782C55.2221 13.8782 55.7361 13.6676 56.1064 13.3186C56.8369 12.6291 57.0605 11.3482 56.17 10.3983Z" fill="white"/>
<path d="M23.4771 25.3323C23.0957 24.9509 22.5686 24.7314 22.0274 24.7314C21.4881 24.7314 20.9592 24.9509 20.5777 25.3323C20.1965 25.7136 19.9771 26.2425 19.9771 26.7818C19.9771 27.3212 20.1965 27.8501 20.5777 28.2315C20.9592 28.613 21.4881 28.8322 22.0274 28.8322C22.5668 28.8322 23.0957 28.613 23.4771 28.2315C23.8606 27.8501 24.0778 27.3212 24.0778 26.7818C24.0778 26.2425 23.8604 25.7134 23.4771 25.3323Z" fill="white"/>
<path d="M44.2149 25.3323C43.8337 24.9509 43.3048 24.7314 42.7652 24.7314C42.2238 24.7314 41.6949 24.9509 41.3137 25.3323C40.9322 25.7136 40.7148 26.2425 40.7148 26.7818C40.7148 27.3212 40.9324 27.8501 41.3137 28.2315C41.697 28.613 42.2259 28.8322 42.7652 28.8322C43.3046 28.8322 43.8314 28.613 44.2149 28.2315C44.5964 27.8501 44.8156 27.3212 44.8156 26.7818C44.8156 26.2425 44.5966 25.7134 44.2149 25.3323Z" fill="white"/>
<path d="M40.2473 37.4414C39.1526 37.1484 38.0293 37.7993 37.7371 38.8932C37.0915 41.3104 34.8953 42.9986 32.3965 42.9986C29.8976 42.9986 27.7016 41.3104 27.0558 38.8932C26.7636 37.7991 25.6399 37.1481 24.5456 37.4414C23.4516 37.7339 22.8017 38.8575 23.0939 39.9516C24.2183 44.1602 28.0435 47.0994 32.3965 47.0994C36.7492 47.0994 40.5746 44.1602 41.699 39.9516C41.9913 38.8573 41.3414 37.7336 40.2473 37.4414Z" fill="white"/>
<path d="M64.993 58.9679C64.6118 58.5864 64.0849 58.3672 63.5435 58.3672C63.0042 58.3672 62.4753 58.5864 62.0938 58.9679C61.7124 59.3495 61.4932 59.8782 61.4932 60.4176C61.4932 60.959 61.7124 61.4858 62.0938 61.8671C62.4753 62.2485 63.0042 62.4679 63.5435 62.4679C64.0849 62.4679 64.6118 62.2485 64.993 61.8671C65.3765 61.4858 65.5939 60.9569 65.5939 60.4176C65.5939 59.8782 65.3765 59.3493 64.993 58.9679Z" fill="white"/>
<path d="M85.0406 58.9698C84.6592 58.5884 84.1321 58.3691 83.5909 58.3691C83.0515 58.3691 82.5227 58.5884 82.1412 58.9698C81.76 59.3513 81.5405 59.8802 81.5405 60.4195C81.5405 60.9609 81.76 61.4878 82.1412 61.869C82.5227 62.2505 83.0515 62.4699 83.5909 62.4699C84.1321 62.4697 84.6592 62.2502 85.0406 61.869C85.4218 61.4878 85.6413 60.9589 85.6413 60.4195C85.6413 59.8802 85.422 59.3513 85.0406 58.9698Z" fill="white"/>
<path d="M82.6267 77.5524C81.5322 73.4543 77.8067 70.5918 73.5679 70.5918C69.3292 70.5918 65.6039 73.4541 64.509 77.5524C64.2166 78.6465 64.8667 79.7701 65.9608 80.0625C67.0557 80.3558 68.1785 79.7047 68.4709 78.6108C69.0872 76.3038 71.1835 74.6927 73.5677 74.6927C75.9526 74.6927 78.0487 76.304 78.6648 78.6108C78.9096 79.5277 79.7383 80.1327 80.6444 80.1327C80.8195 80.1327 80.9977 80.1101 81.1749 80.0625C82.2692 79.7701 82.9191 78.6465 82.6267 77.5524Z" fill="white"/>
</svg>
