<svg width="105" height="105" viewBox="0 0 105 105" fill="none" xmlns="http://www.w3.org/2000/svg">
<path d="M52.5 26.25C47.3083 26.25 42.2331 27.7895 37.9163 30.6739C33.5995 33.5583 30.235 37.658 28.2482 42.4546C26.2614 47.2511 25.7415 52.5291 26.7544 57.6211C27.7673 62.7131 30.2673 67.3904 33.9385 71.0616C37.6096 74.7327 42.2869 77.2328 47.3789 78.2456C52.4709 79.2585 57.7489 78.7386 62.5455 76.7518C67.342 74.765 71.4417 71.4005 74.3261 67.0837C77.2105 62.7669 78.75 57.6918 78.75 52.5C78.7418 45.5406 75.9735 38.8686 71.0525 33.9476C66.1314 29.0265 59.4594 26.2582 52.5 26.25ZM52.5 75.4688C47.9572 75.4688 43.5165 74.1217 39.7393 71.5978C35.9621 69.074 33.0181 65.4868 31.2797 61.2898C29.5412 57.0928 29.0863 52.4745 29.9726 48.019C30.8589 43.5635 33.0464 39.4709 36.2587 36.2586C39.4709 33.0464 43.5635 30.8588 48.019 29.9726C52.4745 29.0863 57.0928 29.5412 61.2898 31.2796C65.4868 33.0181 69.074 35.9621 71.5978 39.7392C74.1217 43.5164 75.4688 47.9572 75.4688 52.5C75.4623 58.5897 73.0402 64.4281 68.7342 68.7342C64.4281 73.0402 58.5897 75.4622 52.5 75.4688Z" fill="white"/>
<path d="M67.2656 41.0156H37.7344C37.2993 41.0156 36.882 41.1885 36.5743 41.4962C36.2666 41.8038 36.0938 42.2211 36.0938 42.6562V49.2188C36.0938 49.6539 36.2666 50.0712 36.5743 50.3788C36.882 50.6865 37.2993 50.8594 37.7344 50.8594H67.2656C67.7007 50.8594 68.118 50.6865 68.4257 50.3788C68.7334 50.0712 68.9062 49.6539 68.9062 49.2188V42.6562C68.9062 42.2211 68.7334 41.8038 68.4257 41.4962C68.118 41.1885 67.7007 41.0156 67.2656 41.0156ZM65.625 47.5781H39.375V44.2969H65.625V47.5781Z" fill="white"/>
<path d="M62.3437 57.7237V54.1406H59.0625V57.7237C57.9679 58.1108 57.0453 58.8723 56.4578 59.8738C55.8703 60.8752 55.6558 62.0521 55.8521 63.1964C56.0485 64.3408 56.643 65.3789 57.5307 66.1272C58.4184 66.8756 59.5421 67.286 60.7031 67.286C61.8642 67.286 62.9878 66.8756 63.8755 66.1272C64.7632 65.3789 65.3578 64.3408 65.5541 63.1964C65.7504 62.0521 65.5359 60.8752 64.9484 59.8738C64.361 58.8723 63.4384 58.1108 62.3437 57.7237V57.7237ZM60.7031 63.9844C60.3786 63.9844 60.0614 63.8882 59.7916 63.7079C59.5218 63.5276 59.3116 63.2714 59.1874 62.9716C59.0632 62.6718 59.0307 62.3419 59.094 62.0237C59.1573 61.7054 59.3136 61.4131 59.543 61.1837C59.7725 60.9542 60.0648 60.798 60.3831 60.7347C60.7013 60.6713 61.0312 60.7038 61.331 60.828C61.6307 60.9522 61.887 61.1625 62.0672 61.4323C62.2475 61.7021 62.3437 62.0193 62.3437 62.3438C62.3437 62.7789 62.1709 63.1962 61.8632 63.5039C61.5555 63.8115 61.1382 63.9844 60.7031 63.9844Z" fill="white"/>
<path d="M36.0938 54.1406H39.375V57.4219H36.0938V54.1406Z" fill="white"/>
<path d="M42.6562 54.1406H45.9375V57.4219H42.6562V54.1406Z" fill="white"/>
<path d="M49.2188 54.1406H52.5V57.4219H49.2188V54.1406Z" fill="white"/>
<path d="M36.0938 60.7031H39.375V63.9844H36.0938V60.7031Z" fill="white"/>
<path d="M42.6562 60.7031H45.9375V63.9844H42.6562V60.7031Z" fill="white"/>
<path d="M49.2188 60.7031H52.5V63.9844H49.2188V60.7031Z" fill="white"/>
<path d="M50.8594 34.4531H54.1406V37.7344H50.8594V34.4531Z" fill="white"/>
<path d="M57.4219 34.4531H60.7031V37.7344H57.4219V34.4531Z" fill="white"/>
<path d="M44.2969 34.4531H47.5781V37.7344H44.2969V34.4531Z" fill="white"/>
<path d="M100.078 36.0944H90.2344C89.7993 36.0944 89.382 36.2673 89.0743 36.5749C88.7666 36.8826 88.5938 37.2999 88.5938 37.735V39.3757H82.5562C80.0064 33.5246 75.8043 28.545 70.4653 25.0477C65.1262 21.5504 58.8825 19.6875 52.5 19.6875C46.1175 19.6875 39.8738 21.5504 34.5347 25.0477C29.1957 28.545 24.9936 33.5246 22.4438 39.3757H16.4062V37.735C16.4062 37.2999 16.2334 36.8826 15.9257 36.5749C15.618 36.2673 15.2007 36.0944 14.7656 36.0944H4.92188C4.48675 36.0944 4.06945 36.2673 3.76178 36.5749C3.4541 36.8826 3.28125 37.2999 3.28125 37.735V67.2663C3.28125 67.7014 3.4541 68.1187 3.76178 68.4264C4.06945 68.7341 4.48675 68.9069 4.92188 68.9069H14.7656C15.2007 68.9069 15.618 68.7341 15.9257 68.4264C16.2334 68.1187 16.4062 67.7014 16.4062 67.2663V65.6257H22.4438C24.9936 71.4767 29.1957 76.4563 34.5347 79.9536C39.8738 83.4509 46.1175 85.3138 52.5 85.3138C58.8825 85.3138 65.1262 83.4509 70.4653 79.9536C75.8043 76.4563 80.0064 71.4767 82.5562 65.6257H88.5938V67.2663C88.5938 67.7014 88.7666 68.1187 89.0743 68.4264C89.382 68.7341 89.7993 68.9069 90.2344 68.9069H100.078C100.513 68.9069 100.931 68.7341 101.238 68.4264C101.546 68.1187 101.719 67.7014 101.719 67.2663V37.735C101.719 37.2999 101.546 36.8826 101.238 36.5749C100.931 36.2673 100.513 36.0944 100.078 36.0944ZM13.125 65.6257H6.5625V39.3757H13.125V65.6257ZM21.1969 62.3444H16.4062V42.6569H21.1969C19.1844 49.0651 19.1844 55.9362 21.1969 62.3444V62.3444ZM52.5 82.0319C46.6593 82.0319 40.9497 80.2999 36.0933 77.055C31.2369 73.8101 27.4518 69.1979 25.2167 63.8018C22.9815 58.4056 22.3967 52.4679 23.5362 46.7394C24.6757 41.0109 27.4882 35.7489 31.6183 31.6189C35.7483 27.4889 41.0102 24.6763 46.7387 23.5368C52.4672 22.3974 58.405 22.9822 63.8011 25.2173C69.1973 27.4525 73.8094 31.2376 77.0543 36.094C80.2993 40.9504 82.0312 46.6599 82.0312 52.5007C82.0252 60.331 78.9119 67.8388 73.375 73.3757C67.8382 78.9126 60.3303 82.0258 52.5 82.0319V82.0319ZM88.5938 62.3444H83.8031C85.8157 55.9362 85.8157 49.0651 83.8031 42.6569H88.5938V62.3444ZM98.4375 65.6257H91.875V39.3757H98.4375V65.6257Z" fill="white"/>
</svg>
