<svg width="105" height="105" viewBox="0 0 105 105" fill="none" xmlns="http://www.w3.org/2000/svg">
<path d="M95.7715 12.5098H9.22852C4.14627 12.5098 0 16.6515 0 21.7383V83.2617C0 88.3312 4.12781 92.4902 9.22852 92.4902H95.7715C100.841 92.4902 105 88.3624 105 83.2617V21.7383C105 16.6688 100.872 12.5098 95.7715 12.5098ZM94.4971 18.6621L52.6956 60.4638L10.5326 18.6621H94.4971ZM6.15234 81.9878V22.9829L35.7818 52.3583L6.15234 81.9878ZM10.5027 86.3379L40.1508 56.6897L50.5395 66.9892C51.742 68.1815 53.6827 68.1776 54.8803 66.9797L65.0098 56.8503L94.4973 86.3379H10.5027ZM98.8477 81.9876L69.3601 52.5L98.8477 23.0122V81.9876Z" fill="white"/>
</svg>
