<svg width="105" height="105" viewBox="0 0 105 105" fill="none" xmlns="http://www.w3.org/2000/svg">
<g clip-path="url(#clip0)">
<path d="M37.2577 22.0155C37.9656 22.0147 38.599 21.5731 38.8446 20.9091C39.0902 20.2442 38.8959 19.4975 38.3584 19.0369L31.2164 12.7698L29.0438 11.053L26.5035 8.8756C25.8701 8.33313 24.9357 8.33313 24.3022 8.8756L12.4474 19.0369C11.9099 19.4975 11.7156 20.2442 11.9612 20.9091C12.2068 21.5731 12.8402 22.0147 13.548 22.0155C14.1893 22.0155 18.121 18.6284 18.121 18.6284L25.4029 12.3909L29.0438 15.5096L32.6848 18.6284C32.6848 18.6284 35.4731 21.2834 37.2577 22.0155Z" fill="white"/>
<path d="M13.548 32.1768C12.6128 32.1768 11.8545 32.9351 11.8545 33.8703C11.8545 34.8056 12.6128 35.5639 13.548 35.5639H37.2577C38.193 35.5639 38.9513 34.8056 38.9513 33.8703C38.9513 32.9351 38.193 32.1768 37.2577 32.1768H33.8706H30.4835H20.3222H16.9351H13.548Z" fill="white"/>
<path d="M29.0438 11.053L31.2164 12.7698C31.2164 12.7698 31.2164 11.3509 31.2164 9.93201C31.2164 8.51309 30.551 8.51309 29.7974 8.51309C29.0438 8.51309 29.0438 9.43525 29.0438 9.78305V11.053Z" fill="white"/>
<path d="M13.548 47.4203H64.3545C65.2897 47.4203 66.048 46.662 66.048 45.7268C66.048 44.7915 65.2897 44.0332 64.3545 44.0332H13.548C12.6128 44.0332 11.8545 44.7915 11.8545 45.7268C11.8545 46.662 12.6128 47.4203 13.548 47.4203Z" fill="white"/>
<path d="M13.548 60.9691H44.0319C44.9672 60.9691 45.7255 60.2108 45.7255 59.2756C45.7255 58.3403 44.9672 57.582 44.0319 57.582H13.548C12.6128 57.582 11.8545 58.3403 11.8545 59.2756C11.8545 60.2108 12.6128 60.9691 13.548 60.9691Z" fill="white"/>
<path d="M50.8061 71.1289H13.548C12.6128 71.1289 11.8545 71.8872 11.8545 72.8224C11.8545 73.7577 12.6128 74.516 13.548 74.516H50.8061C51.7414 74.516 52.4996 73.7577 52.4996 72.8224C52.4996 71.8872 51.7414 71.1289 50.8061 71.1289Z" fill="white"/>
<path d="M28.79 84.6777H13.548C12.6128 84.6777 11.8545 85.436 11.8545 86.3713C11.8545 87.3065 12.6128 88.0648 13.548 88.0648H28.79C29.7252 88.0648 30.4835 87.3065 30.4835 86.3713C30.4835 85.436 29.7252 84.6777 28.79 84.6777Z" fill="white"/>
<path d="M55.8867 57.582H49.1125C48.1772 57.582 47.4189 58.3403 47.4189 59.2756C47.4189 60.2108 48.1772 60.9691 49.1125 60.9691H55.8867C56.8219 60.9691 57.5802 60.2108 57.5802 59.2756C57.5802 58.3403 56.8219 57.582 55.8867 57.582Z" fill="white"/>
<path fill-rule="evenodd" clip-rule="evenodd" d="M95.6466 20.7071L104.131 25.7423C104.519 25.9713 104.798 26.3451 104.91 26.7809C105.021 27.2167 104.954 27.6789 104.724 28.0651L77.9032 73.2625V103.306C77.9032 104.242 77.1449 105 76.2097 105H1.69355C0.758293 105 0 104.242 0 103.306V1.69355C0 0.758293 0.758293 0 1.69355 0H57.5806C57.8114 0.000826928 58.0396 0.0487888 58.2513 0.140578C58.2755 0.152051 58.2967 0.168329 58.3178 0.184585C58.3378 0.199963 58.3578 0.215323 58.3803 0.226578C58.5341 0.305963 58.6755 0.407675 58.8004 0.528407C58.8043 0.53231 58.8089 0.535107 58.8136 0.537929C58.8188 0.541087 58.8241 0.544277 58.8285 0.54908L77.4575 20.8717C77.527 20.961 77.5873 21.0577 77.637 21.1594C77.689 21.2289 77.7345 21.3033 77.7742 21.3811C77.8577 21.5828 77.9016 21.7978 77.9032 22.0161V47.2995L93.3229 21.2984C93.5528 20.9114 93.9266 20.6327 94.3632 20.5227C94.7982 20.4094 95.2604 20.4756 95.6466 20.7071ZM70.5717 78.9782L97.489 33.6154L96.1932 32.8547L93.2841 31.1256L91.9172 30.3144L64.9949 75.7135L66.3502 76.5115L69.2759 78.2199L70.5717 78.9782ZM67.9842 81.3887L63.9993 79.0601L63.2575 84.5608L67.9842 81.3887ZM72.3603 20.3226L59.2742 6.04567V20.3226H72.3603ZM3.3871 101.613H74.5161V78.9716L72.6332 82.1437L72.6208 82.1578C72.5026 82.3447 72.3487 82.5067 72.1685 82.6349C72.1503 82.6481 72.1404 82.6738 72.1197 82.6878L62.0229 89.462C61.4689 89.8342 60.7486 89.8466 60.1822 89.4943C59.6157 89.1412 59.3089 88.4887 59.3999 87.8272L60.9884 76.079C61.0149 75.9682 61.0521 75.8599 61.1 75.7557C61.124 75.6507 61.1596 75.549 61.2051 75.4506L74.5922 52.8796C74.5525 52.7564 74.5269 52.629 74.5161 52.5V23.7097H57.5806C56.6454 23.7097 55.8871 22.9514 55.8871 22.0161V3.3871H3.3871V101.613ZM96.4727 29.0764L99.2181 30.7055L100.954 27.7947L95.3803 24.487L93.6529 27.4003L96.4727 29.0764Z" fill="white"/>
</g>
<defs>
<clipPath id="clip0">
<rect width="105" height="105" fill="white"/>
</clipPath>
</defs>
</svg>
