<svg width="105" height="105" viewBox="0 0 105 105" fill="none" xmlns="http://www.w3.org/2000/svg">
<g clip-path="url(#clip0)">
<path d="M44.9648 72.8355L39.2076 78.6337C39.1332 78.7086 39.0481 78.7246 38.9896 78.7246H38.9892C38.931 78.7246 38.8461 78.709 38.7716 78.6347L36.6333 76.4962C36.0328 75.8953 35.0589 75.8955 34.4582 76.496C33.8576 77.0967 33.8576 78.0706 34.4582 78.671L36.5966 80.8098C37.2358 81.4488 38.0852 81.8007 38.989 81.8007H38.995C39.901 81.7991 40.7517 81.4443 41.3905 80.8012L47.1478 75.0028C47.7463 74.4001 47.7428 73.4262 47.1401 72.8278C46.5369 72.2293 45.5634 72.2328 44.9648 72.8355ZM47.1401 30.9524C46.5371 30.3538 45.5634 30.3573 44.9648 30.9602L39.2076 36.7584C39.1332 36.8333 39.0481 36.8491 38.9898 36.8491H38.9892C38.931 36.8491 38.8461 36.8335 38.7716 36.7592L36.6333 34.6207C36.0328 34.02 35.0589 34.0198 34.4582 34.6205C33.8576 35.2211 33.8576 36.1951 34.4582 36.7955L36.5966 38.9343C37.2358 39.5735 38.0852 39.9252 38.9892 39.9252H38.9954C39.9014 39.9236 40.7521 39.5688 41.3907 38.9257L47.1481 33.1275C47.7463 32.5248 47.7428 31.5511 47.1401 30.9524V30.9524ZM47.1401 51.8901C46.5371 51.2917 45.5634 51.295 44.9648 51.8979L39.2076 57.6961C39.1332 57.7709 39.0481 57.7867 38.9898 57.7867H38.9892C38.931 57.7867 38.8461 57.7711 38.7716 57.6969L36.6333 55.5583C36.0328 54.9575 35.0589 54.9577 34.4582 55.5581C33.8576 56.1588 33.8576 57.1327 34.4582 57.7332L36.5966 59.8719C37.2358 60.5112 38.0852 60.8629 38.9892 60.8629H38.9954C39.9014 60.8612 40.7521 60.5065 41.3907 59.8633L47.1481 54.0652C47.7463 53.4624 47.7428 52.4887 47.1401 51.8901V51.8901ZM37.4987 29.2329H32.4854C30.6196 29.2329 29.1016 30.7508 29.1016 32.6167V43.7108C29.1016 45.5766 30.6196 47.0946 32.4854 47.0946H43.5795C45.4453 47.0946 46.9633 45.5766 46.9633 43.7108V39.8188C46.9633 38.9692 46.2746 38.2807 45.4252 38.2807C44.5758 38.2807 43.8871 38.9692 43.8871 39.8188V43.7108C43.8871 43.8804 43.7491 44.0184 43.5795 44.0184H32.4854C32.3158 44.0184 32.1778 43.8804 32.1778 43.7108V32.6167C32.1778 32.4471 32.3158 32.309 32.4854 32.309H37.4987C38.3482 32.309 39.0368 31.6206 39.0368 30.7709C39.0368 29.9213 38.3482 29.2329 37.4987 29.2329ZM84.6689 3.1582H77.6184C76.7689 3.1582 76.0803 3.84665 76.0803 4.69629C76.0803 5.54593 76.7689 6.23437 77.6184 6.23437H84.6689C87.1998 6.23437 89.2586 8.29336 89.2586 10.824V97.3342C89.2586 99.8648 87.1996 101.924 84.6689 101.924H20.3318C17.801 101.924 15.7422 99.8648 15.7422 97.3342V10.824C15.7422 8.29336 17.8012 6.23437 20.3318 6.23437H31.9809V9.28594H21.3531C19.942 9.28594 18.7937 10.4342 18.7937 11.8451V75.1843C18.7937 76.0339 19.4824 76.7224 20.3318 76.7224C21.1813 76.7224 21.8699 76.0339 21.8699 75.1843V12.3621H29.1783C29.0099 12.8399 28.9172 13.353 28.9172 13.8877V18.1537C28.9172 20.6914 30.9815 22.7557 33.519 22.7557H71.4816C74.019 22.7557 76.0833 20.6914 76.0833 18.1537V13.8879C76.0833 13.3533 75.9906 12.8399 75.8223 12.3623H83.1306V79.7982H75.1492C70.9226 79.7982 67.4838 83.2373 67.4838 87.4646V95.4477H21.8699V81.3369C21.8699 80.4872 21.1813 79.7988 20.3318 79.7988C19.4824 79.7988 18.7937 80.4872 18.7937 81.3369V95.9645C18.7937 97.3756 19.942 98.5236 21.3531 98.5236H69.0215C69.4304 98.5243 69.8213 98.359 70.1092 98.0731L70.1129 98.0694L85.7567 82.4236C86.0184 82.1602 86.1785 81.8046 86.2023 81.4343C86.2031 81.4205 86.2072 11.88 86.2072 11.8451C86.2072 10.434 85.059 9.28594 83.6479 9.28594H73.0201V5.01888C73.0199 2.25155 70.7687 0 68.0016 0H36.9991C34.8893 0 33.0807 1.30963 32.34 3.1582H20.3318C16.1048 3.1582 12.666 6.59716 12.666 10.824V97.3342C12.666 101.561 16.105 105 20.3318 105H84.6689C88.896 105 92.3348 101.561 92.3348 97.3342V10.824C92.3348 6.59716 88.896 3.1582 84.6689 3.1582V3.1582ZM70.5602 93.2714V87.4646C70.5602 84.9335 72.619 82.8743 75.1494 82.8743H80.9558L70.5602 93.2714ZM35.0571 5.01888C35.0571 3.94755 35.9282 3.07617 36.9991 3.07617H68.0016C69.0725 3.07617 69.9437 3.94755 69.9437 5.01888V10.6628C69.9437 11.7342 69.0725 12.6055 68.0016 12.6055H36.9991C35.9282 12.6055 35.0571 11.7342 35.0571 10.6628V5.01888ZM31.9934 13.8879C31.9934 13.4591 32.1716 13.0717 32.4573 12.7942C33.2602 14.4986 34.9937 15.6815 36.9991 15.6815H68.0016C70.0069 15.6815 71.7406 14.4986 72.5435 12.7942C72.8292 13.0717 73.0074 13.4591 73.0074 13.8879V18.1539C73.0074 18.9954 72.323 19.6797 71.4818 19.6797H33.519C32.6777 19.6797 31.9934 18.9952 31.9934 18.1539V13.8879ZM29.1016 64.6484C29.1016 66.5142 30.6196 68.0322 32.4854 68.0322H43.5795C45.4453 68.0322 46.9633 66.5142 46.9633 64.6484V60.7564C46.9633 59.9068 46.2746 59.2184 45.4252 59.2184C44.5758 59.2184 43.8871 59.9068 43.8871 60.7564V64.6484C43.8871 64.818 43.7491 64.956 43.5795 64.956H32.4854C32.3158 64.956 32.1778 64.818 32.1778 64.6484V53.5543C32.1778 53.3847 32.3158 53.2467 32.4854 53.2467H37.4987C38.3482 53.2467 39.0368 52.5582 39.0368 51.7086C39.0368 50.859 38.3482 50.1705 37.4987 50.1705H32.4854C30.6196 50.1705 29.1016 51.6885 29.1016 53.5543V64.6484ZM52.4235 74.1846H74.3611C75.2105 74.1846 75.8992 73.4961 75.8992 72.6465C75.8992 71.7968 75.2105 71.1084 74.3611 71.1084H52.4235C51.5741 71.1084 50.8854 71.7968 50.8854 72.6465C50.8854 73.4961 51.5741 74.1846 52.4235 74.1846ZM29.1016 85.5861C29.1016 87.4519 30.6196 88.9699 32.4854 88.9699H43.5795C45.4453 88.9699 46.9633 87.4519 46.9633 85.5861V81.6943C46.9633 80.8447 46.2746 80.1562 45.4252 80.1562C44.5758 80.1562 43.8871 80.8447 43.8871 81.6943V85.5861C43.8871 85.7557 43.7491 85.8937 43.5795 85.8937H32.4854C32.3158 85.8937 32.1778 85.7557 32.1778 85.5861V74.4922C32.1778 74.3226 32.3158 74.1846 32.4854 74.1846H37.4987C38.3482 74.1846 39.0368 73.4961 39.0368 72.6465C39.0368 71.7968 38.3482 71.1084 37.4987 71.1084H32.4854C30.6196 71.1084 29.1016 72.6264 29.1016 74.4922V85.5861ZM52.4235 80.3369H65.1326C65.982 80.3369 66.6707 79.6484 66.6707 78.7988C66.6707 77.9492 65.982 77.2607 65.1326 77.2607H52.4235C51.5741 77.2607 50.8854 77.9492 50.8854 78.7988C50.8854 79.6484 51.5741 80.3369 52.4235 80.3369V80.3369ZM52.4235 59.3992H65.1326C65.982 59.3992 66.6707 58.7108 66.6707 57.8612C66.6707 57.0115 65.982 56.3231 65.1326 56.3231H52.4235C51.5741 56.3231 50.8854 57.0115 50.8854 57.8612C50.8854 58.7108 51.5741 59.3992 52.4235 59.3992V59.3992ZM52.4235 53.2469H74.3611C75.2105 53.2469 75.8992 52.5584 75.8992 51.7088C75.8992 50.8592 75.2105 50.1707 74.3611 50.1707H52.4235C51.5741 50.1707 50.8854 50.8592 50.8854 51.7088C50.8854 52.5584 51.5741 53.2469 52.4235 53.2469ZM52.4235 38.4614H74.3611C75.2105 38.4614 75.8992 37.7729 75.8992 36.9233C75.8992 36.0737 75.2105 35.3852 74.3611 35.3852H52.4235C51.5741 35.3852 50.8854 36.0737 50.8854 36.9233C50.8854 37.7729 51.5741 38.4614 52.4235 38.4614ZM52.4235 32.309H74.3611C75.2105 32.309 75.8992 31.6206 75.8992 30.7709C75.8992 29.9213 75.2105 29.2329 74.3611 29.2329H52.4235C51.5741 29.2329 50.8854 29.9213 50.8854 30.7709C50.8854 31.6206 51.5741 32.309 52.4235 32.309Z" fill="white"/>
</g>
<defs>
<clipPath id="clip0">
<rect width="105" height="105" fill="white"/>
</clipPath>
</defs>
</svg>
