<svg width="105" height="105" viewBox="0 0 105 105" fill="none" xmlns="http://www.w3.org/2000/svg">
<g clip-path="url(#clip0)">
<path d="M52.4998 18.2607C43.689 18.2607 36.5215 25.4281 36.5215 34.2391C36.5215 43.0501 43.6888 50.2174 52.4998 50.2174C61.3108 50.2174 68.4781 43.0499 68.4781 34.2391C68.4781 25.4283 61.3108 18.2607 52.4998 18.2607ZM52.4998 45.652C46.209 45.652 41.0868 40.5299 41.0868 34.2391C41.0868 27.9483 46.209 22.8261 52.4998 22.8261C58.7906 22.8261 63.9128 27.9483 63.9128 34.2391C63.9128 40.5299 58.7908 45.652 52.4998 45.652Z" fill="white"/>
<path d="M84.4564 36.5215C78.1656 36.5215 73.0435 41.6437 73.0435 47.9345C73.0435 54.2253 78.1656 59.3474 84.4564 59.3474C90.7472 59.3474 95.8694 54.2253 95.8694 47.9345C95.8694 41.6437 90.7472 36.5215 84.4564 36.5215ZM84.4564 54.7823C80.6809 54.7823 77.6086 51.71 77.6086 47.9345C77.6086 44.1589 80.6809 41.0866 84.4564 41.0866C88.2319 41.0866 91.3042 44.1589 91.3042 47.9345C91.3042 51.71 88.2317 54.7823 84.4564 54.7823Z" fill="white"/>
<path d="M20.8676 36.5215C14.5721 36.5215 9.45459 41.6437 9.45459 47.9345C9.45459 54.2253 14.5768 59.3474 20.8676 59.3474C27.1584 59.3474 32.2805 54.2253 32.2805 47.9345C32.2805 41.6437 27.1628 36.5215 20.8676 36.5215ZM20.8676 54.7823C17.0921 54.7823 14.0197 51.71 14.0197 47.9345C14.0197 44.1589 17.0921 41.0866 20.8676 41.0866C24.6431 41.0866 27.7154 44.1589 27.7154 47.9345C27.7154 51.71 24.6428 54.7823 20.8676 54.7823Z" fill="white"/>
<path d="M52.4996 54.7822C36.1378 54.7822 22.8257 68.0944 22.8257 84.4562C22.8257 85.7162 23.8484 86.7389 25.1084 86.7389C26.3684 86.7389 27.391 85.7162 27.391 84.4562C27.391 70.6099 38.6534 59.3476 52.4996 59.3476C66.3459 59.3476 77.6083 70.6099 77.6083 84.4562C77.6083 85.7162 78.6309 86.7389 79.8909 86.7389C81.1509 86.7389 82.1736 85.7162 82.1736 84.4562C82.1736 68.0944 68.8614 54.7822 52.4996 54.7822Z" fill="white"/>
<path d="M84.4567 63.9131C80.6996 63.9131 77.02 64.9403 73.8152 66.8805C72.7424 67.5379 72.3953 68.9394 73.0482 70.0169C73.7101 71.0943 75.1071 71.4367 76.1845 70.7838C78.6724 69.2726 81.5303 68.4782 84.4567 68.4782C93.2675 68.4782 100.435 75.6455 100.435 84.4566C100.435 85.7166 101.458 86.7392 102.718 86.7392C103.978 86.7392 105 85.7166 105 84.4566C105 73.1303 95.783 63.9131 84.4567 63.9131Z" fill="white"/>
<path d="M31.1805 66.8758C27.9802 64.9403 24.3008 63.9131 20.5435 63.9131C9.21717 63.9131 0 73.1303 0 84.4566C0 85.7166 1.02268 86.7392 2.28268 86.7392C3.54268 86.7392 4.56536 85.7166 4.56536 84.4566C4.56514 75.6455 11.7327 68.4782 20.5435 68.4782C23.4698 68.4782 26.3275 69.2726 28.8111 70.7791C29.8839 71.432 31.2901 71.0896 31.9474 70.0121C32.6048 68.9347 32.2577 67.5332 31.1805 66.8758Z" fill="white"/>
</g>
<defs>
<clipPath id="clip0">
<rect width="105" height="105" fill="white"/>
</clipPath>
</defs>
</svg>
